<svg width="65" height="17" viewBox="0 0 65 17" fill="none" xmlns="http://www.w3.org/2000/svg">
<path d="M11.32 16.26C19.82 16.26 21.3 12.1 21.3 10.22V10H16.36C16.24 10.34 15.76 12.64 10.94 12.64C6.6 12.64 5.42 10.32 5.42 8.56V8.32C5.42 6.46 6.44 4.46 10.9 4.46C15.62 4.46 16.22 6.54 16.34 6.94H21.28V6.72C21.28 4.98 19.94 0.859999 11.32 0.859999H10.5C1.7 0.859999 0.54 5.52 0.54 8.22V8.8C0.54 11.44 1.88 16.26 10.5 16.26H11.32ZM30.2773 7.44C32.5373 7.44 33.5773 8.12 33.8773 9.26H26.6773C27.0173 8.12 28.0173 7.44 30.2573 7.44H30.2773ZM38.3173 12.2H33.9173C33.8573 12.46 33.3773 13.58 30.4173 13.58H30.3973C27.9373 13.58 26.8573 12.74 26.5973 11.48H38.3773V10.74C38.3773 8.12 37.2173 4.94 30.8973 4.94H29.6773C23.8573 4.94 22.2173 7.6 22.2173 10.36V10.8C22.2173 13.62 24.0573 16.3 29.7973 16.3H30.9373C37.3573 16.3 38.3173 13.68 38.3173 12.22V12.2ZM39.7291 16H44.1891V10.92C44.1891 9.16 45.4891 8 47.4891 8C49.4691 8 50.3691 9.02 50.3691 10.68V16H54.8691V9.2C54.8691 7.12 53.3891 5 49.6291 5H49.4891C46.2891 5 44.6891 6.54 44.1491 7.08V5.24H39.7291V16ZM64.3688 16V13.04H63.1488C62.3688 13.04 62.2488 12.68 62.2488 12.1V8.2H64.3688V5.24H62.2488V2.1H57.8488V5.24H55.7488V8.2H57.8488V12.94C57.8488 14.8 58.5688 16 60.5088 16H64.3688Z" fill="white"/>
</svg>
